<svg xmlns="http://www.w3.org/2000/svg" xmlns:xlink="http://www.w3.org/1999/xlink" width="6912" zoomAndPan="magnify" viewBox="0 0 5184 2592.000001" height="3456" preserveAspectRatio="xMidYMid meet" version="1.0"><defs><g/><clipPath id="id1"><path d="M 1 0 L 5183 0 L 5183 2591 L 1 2591 Z M 1 0 " clip-rule="nonzero"/></clipPath><clipPath id="id2"><path d="M 640.847656 259.101562 L 1834.382812 259.101562 L 1834.382812 1634.070312 L 640.847656 1634.070312 Z M 640.847656 259.101562 " clip-rule="nonzero"/></clipPath></defs><g clip-path="url(#id1)"><path fill="#ffffff" d="M 1 0 L 5183 0 L 5183 2598.496094 L 1 2598.496094 Z M 1 0 " fill-opacity="1" fill-rule="nonzero"/></g><path fill="#000000" d="M 1 0 L 5183 0 L 5183 2591 L 1 2591 Z M 1 0 " fill-opacity="1" fill-rule="nonzero"/><path fill="#ffffff" d="M 1 0 L 5183 0 L 5183 2591 L 1 2591 Z M 1 0 " fill-opacity="1" fill-rule="nonzero"/><path fill="#000000" d="M 1 0 L 5183 0 L 5183 2591 L 1 2591 Z M 1 0 " fill-opacity="1" fill-rule="nonzero"/><path fill="#ffffff" d="M 1609.054688 771.820312 C 1602.429688 771.820312 1597.070312 766.449219 1597.070312 759.835938 L 1597.070312 671.449219 C 1597.070312 661.542969 1589.003906 653.476562 1579.097656 653.476562 L 896.132812 653.476562 C 886.222656 653.476562 878.164062 661.542969 878.164062 671.449219 L 878.164062 759.835938 C 878.164062 766.449219 872.796875 771.820312 866.179688 771.820312 C 859.5625 771.820312 854.199219 766.449219 854.199219 759.835938 L 854.199219 671.449219 C 854.199219 648.324219 873.011719 629.511719 896.132812 629.511719 L 1579.097656 629.511719 C 1602.21875 629.511719 1621.027344 648.324219 1621.027344 671.449219 L 1621.027344 759.835938 C 1621.027344 766.449219 1615.671875 771.820312 1609.054688 771.820312 " fill-opacity="1" fill-rule="nonzero"/><path fill="#ffffff" d="M 878.164062 771.820312 L 878.164062 1221.71875 C 878.164062 1231.625 886.222656 1239.691406 896.132812 1239.691406 L 1579.097656 1239.691406 C 1589.003906 1239.691406 1597.070312 1231.625 1597.070312 1221.71875 L 1597.070312 771.820312 Z M 1579.097656 1263.65625 L 896.132812 1263.65625 C 873.011719 1263.65625 854.199219 1244.84375 854.199219 1221.71875 L 854.199219 759.835938 C 854.199219 753.21875 859.5625 747.847656 866.179688 747.847656 L 1609.054688 747.847656 C 1615.671875 747.847656 1621.027344 753.21875 1621.027344 759.835938 L 1621.027344 1221.71875 C 1621.027344 1244.84375 1602.21875 1263.65625 1579.097656 1263.65625 " fill-opacity="1" fill-rule="nonzero"/><path fill="#ffffff" d="M 959.535156 718.140625 C 949.882812 718.140625 942.0625 710.316406 942.0625 700.667969 C 942.0625 691.015625 949.882812 683.1875 959.535156 683.1875 C 969.1875 683.1875 977.007812 691.015625 977.007812 700.667969 C 977.007812 710.316406 969.1875 718.140625 959.535156 718.140625 " fill-opacity="1" fill-rule="nonzero"/><path fill="#ffffff" d="M 1028.429688 718.140625 C 1018.78125 718.140625 1010.957031 710.316406 1010.957031 700.667969 C 1010.957031 691.015625 1018.78125 683.1875 1028.429688 683.1875 C 1038.082031 683.1875 1045.902344 691.015625 1045.902344 700.667969 C 1045.902344 710.316406 1038.082031 718.140625 1028.429688 718.140625 " fill-opacity="1" fill-rule="nonzero"/><path fill="#ffffff" d="M 1097.324219 718.140625 C 1087.675781 718.140625 1079.851562 710.316406 1079.851562 700.667969 C 1079.851562 691.015625 1087.675781 683.1875 1097.324219 683.1875 C 1106.976562 683.1875 1114.796875 691.015625 1114.796875 700.667969 C 1114.796875 710.316406 1106.976562 718.140625 1097.324219 718.140625 " fill-opacity="1" fill-rule="nonzero"/><path fill="#ffffff" d="M 991.441406 1039.5625 L 1064.699219 1039.5625 L 1064.699219 937.53125 Z M 1076.679688 1123.199219 C 1070.0625 1123.199219 1064.699219 1117.835938 1064.699219 1111.21875 L 1064.699219 1063.527344 L 968.089844 1063.527344 C 963.59375 1063.527344 959.476562 1061.019531 957.425781 1057.015625 C 955.378906 1053.019531 955.734375 1048.207031 958.355469 1044.554688 L 1066.945312 893.308594 C 1069.984375 889.074219 1075.398438 887.292969 1080.351562 888.886719 C 1085.304688 890.484375 1088.660156 895.09375 1088.660156 900.292969 L 1088.660156 1039.5625 L 1114.515625 1039.5625 C 1121.132812 1039.5625 1126.496094 1044.933594 1126.496094 1051.546875 C 1126.496094 1058.167969 1121.132812 1063.527344 1114.515625 1063.527344 L 1088.660156 1063.527344 L 1088.660156 1111.21875 C 1088.660156 1117.835938 1083.296875 1123.199219 1076.679688 1123.199219 " fill-opacity="1" fill-rule="nonzero"/><path fill="#ffffff" d="M 1384.070312 1039.5625 L 1457.324219 1039.5625 L 1457.324219 937.53125 Z M 1469.308594 1123.199219 C 1462.691406 1123.199219 1457.324219 1117.835938 1457.324219 1111.21875 L 1457.324219 1063.527344 L 1360.714844 1063.527344 C 1356.21875 1063.527344 1352.109375 1061.019531 1350.058594 1057.015625 C 1348 1053.019531 1348.363281 1048.207031 1350.988281 1044.554688 L 1459.578125 893.308594 C 1462.609375 889.074219 1468.03125 887.292969 1472.984375 888.886719 C 1477.929688 890.484375 1481.292969 895.09375 1481.292969 900.292969 L 1481.292969 1039.5625 L 1507.140625 1039.5625 C 1513.757812 1039.5625 1519.125 1044.933594 1519.125 1051.546875 C 1519.125 1058.167969 1513.757812 1063.527344 1507.140625 1063.527344 L 1481.292969 1063.527344 L 1481.292969 1111.21875 C 1481.292969 1117.835938 1475.925781 1123.199219 1469.308594 1123.199219 " fill-opacity="1" fill-rule="nonzero"/><path fill="#ffffff" d="M 1237.617188 912.28125 C 1211.160156 912.28125 1189.640625 933.804688 1189.640625 960.265625 L 1189.640625 1051.25 C 1189.640625 1077.707031 1211.160156 1099.234375 1237.617188 1099.234375 C 1264.070312 1099.234375 1285.589844 1077.707031 1285.589844 1051.25 L 1285.589844 960.265625 C 1285.589844 933.804688 1264.070312 912.28125 1237.617188 912.28125 Z M 1237.617188 1123.199219 C 1197.949219 1123.199219 1165.675781 1090.921875 1165.675781 1051.25 L 1165.675781 960.265625 C 1165.675781 920.589844 1197.949219 888.308594 1237.617188 888.308594 C 1277.28125 888.308594 1309.554688 920.589844 1309.554688 960.265625 L 1309.554688 1051.25 C 1309.554688 1090.921875 1277.28125 1123.199219 1237.617188 1123.199219 " fill-opacity="1" fill-rule="nonzero"/><g clip-path="url(#id2)"><path fill="#ffffff" d="M 663.152344 1278.304688 L 1237.617188 1610.027344 L 1812.085938 1278.304688 L 1812.085938 614.859375 L 1237.617188 283.136719 L 663.152344 614.859375 Z M 1237.617188 1634.070312 C 1235.691406 1634.070312 1233.765625 1633.574219 1232.039062 1632.578125 L 646.421875 1294.414062 C 642.972656 1292.417969 640.847656 1288.738281 640.847656 1284.746094 L 640.847656 608.414062 C 640.847656 604.433594 642.972656 600.746094 646.421875 598.757812 L 1232.039062 260.589844 C 1235.492188 258.597656 1239.742188 258.597656 1243.195312 260.589844 L 1828.808594 598.757812 C 1832.257812 600.746094 1834.390625 604.433594 1834.390625 608.414062 L 1834.390625 1284.746094 C 1834.390625 1288.738281 1832.257812 1292.417969 1828.808594 1294.414062 L 1243.195312 1632.578125 C 1241.46875 1633.574219 1239.542969 1634.070312 1237.617188 1634.070312 " fill-opacity="1" fill-rule="nonzero"/></g><g fill="#9f3f73" fill-opacity="1"><g transform="translate(1091.815405, 1840.116369)"><g><path d="M 167.632812 -143.195312 L 140.902344 -41.621094 L 112.644531 -143.195312 L 83.050781 -143.195312 L 54.988281 -41.8125 L 28.257812 -143.195312 L -3.246094 -143.195312 L 36.65625 0 L 70.832031 0 L 97.945312 -104.054688 L 125.054688 0 L 159.230469 0 L 198.945312 -143.195312 Z M 167.632812 -143.195312 "/></g></g></g><g fill="#9f3f73" fill-opacity="1"><g transform="translate(1287.496373, 1840.116369)"><g><path d="M 103.671875 -116.847656 L 103.671875 -143.195312 L 15.65625 -143.195312 L 15.65625 0 L 103.671875 0 L 103.671875 -26.347656 L 45.441406 -26.347656 L 45.441406 -58.421875 L 95.652344 -58.421875 L 95.652344 -84.769531 L 45.441406 -84.769531 L 45.441406 -116.847656 Z M 103.671875 -116.847656 "/></g></g></g><g fill="#9f3f73" fill-opacity="1"><g transform="translate(1399.750401, 1840.116369)"><g/></g></g><g fill="#9f3f73" fill-opacity="1"><g transform="translate(1450.53198, 1840.116369)"><g><path d="M 114.746094 0 L 147.011719 0 L 89.542969 -143.195312 L 56.132812 -143.195312 L -1.335938 0 L 30.929688 0 L 41.238281 -27.683594 L 104.4375 -27.683594 Z M 50.59375 -52.695312 L 72.933594 -112.644531 L 95.273438 -52.695312 Z M 50.59375 -52.695312 "/></g></g></g><g fill="#9f3f73" fill-opacity="1"><g transform="translate(1596.194929, 1840.116369)"><g><path d="M 87.253906 -59.570312 C 95.84375 -61.859375 102.910156 -66.824219 108.445312 -74.078125 C 113.980469 -81.335938 116.847656 -89.925781 116.847656 -99.664062 C 116.847656 -111.882812 112.644531 -122.191406 104.628906 -130.59375 C 96.417969 -138.992188 86.296875 -143.195312 74.269531 -143.195312 L 14.511719 -143.195312 L 14.511719 0 L 44.292969 0 L 44.292969 -56.515625 L 57.851562 -56.515625 L 93.363281 0 L 127.730469 0 Z M 70.070312 -81.144531 L 44.292969 -81.144531 L 44.292969 -116.65625 L 70.070312 -116.65625 C 75.222656 -116.65625 79.617188 -114.9375 83.050781 -111.5 C 86.488281 -108.0625 88.207031 -103.863281 88.207031 -98.898438 C 88.207031 -93.746094 86.488281 -89.542969 83.050781 -86.105469 C 79.617188 -82.671875 75.222656 -81.144531 70.070312 -81.144531 Z M 70.070312 -81.144531 "/></g></g></g><g fill="#9f3f73" fill-opacity="1"><g transform="translate(1723.912537, 1840.116369)"><g><path d="M 103.671875 -116.847656 L 103.671875 -143.195312 L 15.65625 -143.195312 L 15.65625 0 L 103.671875 0 L 103.671875 -26.347656 L 45.441406 -26.347656 L 45.441406 -58.421875 L 95.652344 -58.421875 L 95.652344 -84.769531 L 45.441406 -84.769531 L 45.441406 -116.847656 Z M 103.671875 -116.847656 "/></g></g></g><g fill="#9f3f73" fill-opacity="1"><g transform="translate(1836.166564, 1840.116369)"><g/></g></g><g fill="#9f3f73" fill-opacity="1"><g transform="translate(1886.948143, 1840.116369)"><g><path d="M 104.4375 -143.195312 L 1.910156 -143.195312 L 1.910156 -116.65625 L 38.375 -116.65625 L 38.375 0 L 67.96875 0 L 67.96875 -116.65625 L 104.4375 -116.65625 Z M 104.4375 -143.195312 "/></g></g></g><g fill="#9f3f73" fill-opacity="1"><g transform="translate(1993.284014, 1840.116369)"><g><path d="M 87.253906 -59.570312 C 95.84375 -61.859375 102.910156 -66.824219 108.445312 -74.078125 C 113.980469 -81.335938 116.847656 -89.925781 116.847656 -99.664062 C 116.847656 -111.882812 112.644531 -122.191406 104.628906 -130.59375 C 96.417969 -138.992188 86.296875 -143.195312 74.269531 -143.195312 L 14.511719 -143.195312 L 14.511719 0 L 44.292969 0 L 44.292969 -56.515625 L 57.851562 -56.515625 L 93.363281 0 L 127.730469 0 Z M 70.070312 -81.144531 L 44.292969 -81.144531 L 44.292969 -116.65625 L 70.070312 -116.65625 C 75.222656 -116.65625 79.617188 -114.9375 83.050781 -111.5 C 86.488281 -108.0625 88.207031 -103.863281 88.207031 -98.898438 C 88.207031 -93.746094 86.488281 -89.542969 83.050781 -86.105469 C 79.617188 -82.671875 75.222656 -81.144531 70.070312 -81.144531 Z M 70.070312 -81.144531 "/></g></g></g><g fill="#9f3f73" fill-opacity="1"><g transform="translate(2121.001622, 1840.116369)"><g><path d="M 127.347656 -143.195312 L 93.933594 -143.195312 L 62.433594 -93.554688 L 31.121094 -143.195312 L -2.671875 -143.195312 L 47.539062 -67.207031 L 47.539062 0 L 77.324219 0 L 77.324219 -67.585938 Z M 127.347656 -143.195312 "/></g></g></g><g fill="#9f3f73" fill-opacity="1"><g transform="translate(2245.664716, 1840.116369)"><g><path d="M 15.65625 0 L 45.441406 0 L 45.441406 -143.195312 L 15.65625 -143.195312 Z M 15.65625 0 "/></g></g></g><g fill="#9f3f73" fill-opacity="1"><g transform="translate(2306.56434, 1840.116369)"><g><path d="M 117.226562 -143.195312 L 117.226562 -44.675781 L 45.058594 -143.195312 L 14.511719 -143.195312 L 14.511719 0 L 44.292969 0 L 44.292969 -98.898438 L 116.273438 0 L 146.820312 0 L 146.820312 -143.195312 Z M 117.226562 -143.195312 "/></g></g></g><g fill="#9f3f73" fill-opacity="1"><g transform="translate(2467.881885, 1840.116369)"><g><path d="M 87.253906 -82.097656 L 87.253906 -55.558594 L 115.320312 -55.558594 L 115.320312 -41.429688 C 107.109375 -31.882812 96.226562 -27.300781 82.480469 -27.300781 C 69.878906 -27.300781 59.570312 -31.503906 51.167969 -39.902344 C 42.765625 -48.304688 38.566406 -58.996094 38.566406 -71.597656 C 38.566406 -84.199219 42.765625 -94.699219 51.167969 -103.101562 C 59.570312 -111.5 70.261719 -115.890625 82.863281 -115.890625 C 96.988281 -115.890625 108.445312 -110.546875 116.847656 -100.234375 L 139.566406 -117.992188 C 132.882812 -126.390625 124.484375 -132.882812 114.554688 -137.847656 C 104.4375 -142.621094 93.933594 -145.101562 82.863281 -145.101562 C 62.433594 -145.101562 45.058594 -137.847656 30.738281 -123.527344 C 16.417969 -109.210938 9.355469 -91.835938 9.355469 -71.597656 C 9.355469 -51.167969 16.417969 -33.792969 30.546875 -19.472656 C 44.675781 -5.15625 62.050781 1.910156 82.480469 1.910156 C 97.945312 1.910156 110.164062 -2.480469 119.136719 -11.265625 L 121.808594 0 L 144.339844 0 L 144.339844 -82.097656 Z M 87.253906 -82.097656 "/></g></g></g><g fill="#9f3f73" fill-opacity="1"><g transform="translate(2623.472011, 1840.116369)"><g/></g></g><g fill="#9f3f73" fill-opacity="1"><g transform="translate(2674.253658, 1840.116369)"><g><path d="M 104.4375 -143.195312 L 1.910156 -143.195312 L 1.910156 -116.65625 L 38.375 -116.65625 L 38.375 0 L 67.96875 0 L 67.96875 -116.65625 L 104.4375 -116.65625 Z M 104.4375 -143.195312 "/></g></g></g><g fill="#9f3f73" fill-opacity="1"><g transform="translate(2780.589529, 1840.116369)"><g><path d="M 82.863281 1.910156 C 103.101562 1.910156 120.472656 -5.15625 134.792969 -19.472656 C 149.113281 -33.792969 156.367188 -51.167969 156.367188 -71.597656 C 156.367188 -91.835938 149.113281 -109.210938 134.792969 -123.527344 C 120.472656 -137.847656 103.101562 -145.101562 82.863281 -145.101562 C 62.433594 -145.101562 45.058594 -137.847656 30.738281 -123.527344 C 16.417969 -109.210938 9.355469 -91.835938 9.355469 -71.597656 C 9.355469 -51.167969 16.417969 -33.792969 30.738281 -19.472656 C 45.058594 -5.15625 62.433594 1.910156 82.863281 1.910156 Z M 82.863281 -27.300781 C 70.261719 -27.300781 59.757812 -31.503906 51.359375 -40.09375 C 42.765625 -48.496094 38.566406 -58.996094 38.566406 -71.597656 C 38.566406 -84.007812 42.765625 -94.507812 51.359375 -103.101562 C 59.757812 -111.5 70.261719 -115.890625 82.863281 -115.890625 C 95.273438 -115.890625 105.773438 -111.5 114.363281 -103.101562 C 122.765625 -94.507812 127.15625 -84.007812 127.15625 -71.597656 C 127.15625 -58.996094 122.765625 -48.496094 114.363281 -40.09375 C 105.773438 -31.503906 95.273438 -27.300781 82.863281 -27.300781 Z M 82.863281 -27.300781 "/></g></g></g><g fill="#9f3f73" fill-opacity="1"><g transform="translate(2946.297904, 1840.116369)"><g/></g></g><g fill="#9f3f73" fill-opacity="1"><g transform="translate(2997.079415, 1840.116369)"><g><path d="M 87.253906 -82.097656 L 87.253906 -55.558594 L 115.320312 -55.558594 L 115.320312 -41.429688 C 107.109375 -31.882812 96.226562 -27.300781 82.480469 -27.300781 C 69.878906 -27.300781 59.570312 -31.503906 51.167969 -39.902344 C 42.765625 -48.304688 38.566406 -58.996094 38.566406 -71.597656 C 38.566406 -84.199219 42.765625 -94.699219 51.167969 -103.101562 C 59.570312 -111.5 70.261719 -115.890625 82.863281 -115.890625 C 96.988281 -115.890625 108.445312 -110.546875 116.847656 -100.234375 L 139.566406 -117.992188 C 132.882812 -126.390625 124.484375 -132.882812 114.554688 -137.847656 C 104.4375 -142.621094 93.933594 -145.101562 82.863281 -145.101562 C 62.433594 -145.101562 45.058594 -137.847656 30.738281 -123.527344 C 16.417969 -109.210938 9.355469 -91.835938 9.355469 -71.597656 C 9.355469 -51.167969 16.417969 -33.792969 30.546875 -19.472656 C 44.675781 -5.15625 62.050781 1.910156 82.480469 1.910156 C 97.945312 1.910156 110.164062 -2.480469 119.136719 -11.265625 L 121.808594 0 L 144.339844 0 L 144.339844 -82.097656 Z M 87.253906 -82.097656 "/></g></g></g><g fill="#9f3f73" fill-opacity="1"><g transform="translate(3152.66954, 1840.116369)"><g><path d="M 103.671875 -116.847656 L 103.671875 -143.195312 L 15.65625 -143.195312 L 15.65625 0 L 103.671875 0 L 103.671875 -26.347656 L 45.441406 -26.347656 L 45.441406 -58.421875 L 95.652344 -58.421875 L 95.652344 -84.769531 L 45.441406 -84.769531 L 45.441406 -116.847656 Z M 103.671875 -116.847656 "/></g></g></g><g fill="#9f3f73" fill-opacity="1"><g transform="translate(3264.923635, 1840.116369)"><g><path d="M 104.4375 -143.195312 L 1.910156 -143.195312 L 1.910156 -116.65625 L 38.375 -116.65625 L 38.375 0 L 67.96875 0 L 67.96875 -116.65625 L 104.4375 -116.65625 Z M 104.4375 -143.195312 "/></g></g></g><g fill="#9f3f73" fill-opacity="1"><g transform="translate(3371.259506, 1840.116369)"><g/></g></g><g fill="#9f3f73" fill-opacity="1"><g transform="translate(3422.041016, 1840.116369)"><g><path d="M 104.4375 -143.195312 L 1.910156 -143.195312 L 1.910156 -116.65625 L 38.375 -116.65625 L 38.375 0 L 67.96875 0 L 67.96875 -116.65625 L 104.4375 -116.65625 Z M 104.4375 -143.195312 "/></g></g></g><g fill="#9f3f73" fill-opacity="1"><g transform="translate(3528.376748, 1840.116369)"><g><path d="M 104.628906 -143.195312 L 104.628906 -84.960938 L 44.292969 -84.960938 L 44.292969 -143.195312 L 14.511719 -143.195312 L 14.511719 0 L 44.292969 0 L 44.292969 -58.421875 L 104.628906 -58.421875 L 104.628906 0 L 134.21875 0 L 134.21875 -143.195312 Z M 104.628906 -143.195312 "/></g></g></g><g fill="#9f3f73" fill-opacity="1"><g transform="translate(3677.09435, 1840.116369)"><g><path d="M 15.65625 0 L 45.441406 0 L 45.441406 -143.195312 L 15.65625 -143.195312 Z M 15.65625 0 "/></g></g></g><g fill="#9f3f73" fill-opacity="1"><g transform="translate(3737.993975, 1840.116369)"><g><path d="M 57.46875 1.910156 C 71.023438 1.910156 82.480469 -1.910156 91.835938 -9.546875 C 101.191406 -17.183594 105.964844 -27.300781 105.964844 -40.09375 C 105.964844 -47.160156 104.628906 -53.460938 102.335938 -58.804688 C 99.855469 -64.152344 96.609375 -68.351562 92.789062 -71.40625 C 88.78125 -74.460938 84.390625 -77.324219 79.808594 -79.617188 C 75.035156 -81.90625 70.261719 -83.816406 65.679688 -85.34375 C 60.90625 -86.871094 56.515625 -88.589844 52.695312 -90.308594 C 48.6875 -91.835938 45.441406 -93.933594 43.148438 -96.609375 C 40.667969 -99.089844 39.523438 -102.144531 39.523438 -105.582031 C 39.523438 -109.972656 40.859375 -113.410156 43.914062 -115.699219 C 46.777344 -117.992188 50.59375 -119.136719 55.175781 -119.136719 C 63.578125 -119.136719 71.597656 -114.9375 78.851562 -106.726562 L 98.515625 -125.054688 C 93.171875 -131.164062 86.871094 -135.9375 79.234375 -139.566406 C 71.597656 -143.195312 63.578125 -145.101562 55.175781 -145.101562 C 42.957031 -145.101562 32.457031 -141.476562 23.675781 -134.21875 C 14.890625 -126.964844 10.5 -116.65625 10.5 -103.671875 C 10.5 -94.699219 12.792969 -87.253906 17.375 -81.335938 C 21.957031 -75.222656 27.492188 -70.832031 33.984375 -67.96875 C 40.476562 -65.105469 47.160156 -62.625 53.648438 -60.332031 C 60.140625 -58.042969 65.679688 -55.367188 70.261719 -52.3125 C 74.84375 -49.066406 77.132812 -45.058594 77.132812 -40.285156 C 77.132812 -35.703125 75.222656 -32.074219 71.789062 -29.402344 C 68.351562 -26.730469 63.578125 -25.585938 57.660156 -25.585938 C 50.976562 -25.585938 45.058594 -27.300781 40.09375 -30.738281 C 34.9375 -34.175781 31.121094 -38.757812 28.640625 -44.675781 L 4.390625 -29.59375 C 8.972656 -20.238281 15.847656 -12.601562 25.394531 -6.875 C 34.9375 -0.953125 45.632812 1.910156 57.46875 1.910156 Z M 57.46875 1.910156 "/></g></g></g><g fill="#9f3f73" fill-opacity="1"><g transform="translate(3849.484305, 1840.116369)"><g/></g></g><g fill="#9f3f73" fill-opacity="1"><g transform="translate(3900.265952, 1840.116369)"><g><path d="M 14.511719 0 L 60.714844 0 C 83.050781 0 100.808594 -6.683594 113.980469 -20.429688 C 126.964844 -33.984375 133.648438 -50.976562 133.648438 -71.597656 C 133.648438 -92.027344 126.964844 -109.019531 113.980469 -122.765625 C 100.808594 -136.320312 83.050781 -143.195312 60.714844 -143.195312 L 14.511719 -143.195312 Z M 44.105469 -26.539062 L 44.105469 -116.65625 L 59.378906 -116.65625 C 72.742188 -116.65625 83.433594 -112.453125 91.070312 -104.054688 C 98.707031 -95.652344 102.71875 -84.769531 102.71875 -71.597656 C 102.71875 -58.230469 98.707031 -47.539062 91.070312 -39.140625 C 83.433594 -30.738281 72.742188 -26.539062 59.378906 -26.539062 Z M 44.105469 -26.539062 "/></g></g></g><g fill="#9f3f73" fill-opacity="1"><g transform="translate(4043.256135, 1840.116369)"><g><path d="M 82.863281 1.910156 C 103.101562 1.910156 120.472656 -5.15625 134.792969 -19.472656 C 149.113281 -33.792969 156.367188 -51.167969 156.367188 -71.597656 C 156.367188 -91.835938 149.113281 -109.210938 134.792969 -123.527344 C 120.472656 -137.847656 103.101562 -145.101562 82.863281 -145.101562 C 62.433594 -145.101562 45.058594 -137.847656 30.738281 -123.527344 C 16.417969 -109.210938 9.355469 -91.835938 9.355469 -71.597656 C 9.355469 -51.167969 16.417969 -33.792969 30.738281 -19.472656 C 45.058594 -5.15625 62.433594 1.910156 82.863281 1.910156 Z M 82.863281 -27.300781 C 70.261719 -27.300781 59.757812 -31.503906 51.359375 -40.09375 C 42.765625 -48.496094 38.566406 -58.996094 38.566406 -71.597656 C 38.566406 -84.007812 42.765625 -94.507812 51.359375 -103.101562 C 59.757812 -111.5 70.261719 -115.890625 82.863281 -115.890625 C 95.273438 -115.890625 105.773438 -111.5 114.363281 -103.101562 C 122.765625 -94.507812 127.15625 -84.007812 127.15625 -71.597656 C 127.15625 -58.996094 122.765625 -48.496094 114.363281 -40.09375 C 105.773438 -31.503906 95.273438 -27.300781 82.863281 -27.300781 Z M 82.863281 -27.300781 "/></g></g></g><g fill="#9f3f73" fill-opacity="1"><g transform="translate(4208.96451, 1840.116369)"><g><path d="M 117.226562 -143.195312 L 117.226562 -44.675781 L 45.058594 -143.195312 L 14.511719 -143.195312 L 14.511719 0 L 44.292969 0 L 44.292969 -98.898438 L 116.273438 0 L 146.820312 0 L 146.820312 -143.195312 Z M 117.226562 -143.195312 "/></g></g></g><g fill="#9f3f73" fill-opacity="1"><g transform="translate(4370.282055, 1840.116369)"><g><path d="M 103.671875 -116.847656 L 103.671875 -143.195312 L 15.65625 -143.195312 L 15.65625 0 L 103.671875 0 L 103.671875 -26.347656 L 45.441406 -26.347656 L 45.441406 -58.421875 L 95.652344 -58.421875 L 95.652344 -84.769531 L 45.441406 -84.769531 L 45.441406 -116.847656 Z M 103.671875 -116.847656 "/></g></g></g><path stroke-linecap="butt" transform="matrix(4.475511, 0, 0, 4.475511, 640.47422, 1662.62058)" fill="none" stroke-linejoin="miter" d="M 136.639939 6.005015 L 130.672569 28.699699 L 124.360441 6.005015 L 117.747195 6.005015 L 111.476962 28.657804 L 105.499119 6.005015 L 98.458198 6.005015 L 107.373904 38.000312 L 115.017933 38.000312 L 121.069092 14.754016 L 127.130725 38.000312 L 134.765153 38.000312 L 143.638965 6.005015 Z M 166.073552 11.889469 L 166.073552 6.005015 L 146.409249 6.005015 L 146.409249 38.000312 L 166.073552 38.000312 L 166.073552 32.115859 L 153.064389 32.115859 L 153.064389 24.950127 L 164.281683 24.950127 L 164.281683 19.0552 L 153.064389 19.0552 L 153.064389 11.889469 Z M 204.980594 38.000312 L 212.187347 38.000312 L 199.345763 6.005015 L 191.878041 6.005015 L 179.036456 38.000312 L 186.253684 38.000312 L 188.556144 31.813868 L 202.678134 31.813868 Z M 190.638657 26.231405 L 195.638086 12.826861 L 200.627041 26.231405 Z M 231.382082 24.689158 C 233.298762 24.17944 234.881158 23.064868 236.120542 21.450178 C 237.350324 19.825887 237.995327 17.909207 237.995327 15.73243 C 237.995327 13.004041 237.057935 10.702453 235.266938 8.817194 C 233.423573 6.942408 231.163007 6.005015 228.476513 6.005015 L 215.124337 6.005015 L 215.124337 38.000312 L 221.779478 38.000312 L 221.779478 25.376929 L 224.809858 25.376929 L 232.746276 38.000312 L 240.422599 38.000312 Z M 227.53912 19.867782 L 221.779478 19.867782 L 221.779478 11.931363 L 227.53912 11.931363 C 228.694714 11.931363 229.674002 12.31627 230.444689 13.086957 C 231.204902 13.857645 231.590682 14.795037 231.590682 15.899136 C 231.590682 17.055603 231.204902 17.992996 230.444689 18.763683 C 229.674002 19.523897 228.694714 19.867782 227.53912 19.867782 Z M 263.585106 11.889469 L 263.585106 6.005015 L 243.921675 6.005015 L 243.921675 38.000312 L 263.585106 38.000312 L 263.585106 32.115859 L 250.576816 32.115859 L 250.576816 24.950127 L 261.79411 24.950127 L 261.79411 19.0552 L 250.576816 19.0552 L 250.576816 11.889469 Z M 300.19056 6.005015 L 277.277676 6.005015 L 277.277676 11.931363 L 285.421822 11.931363 L 285.421822 38.000312 L 292.03594 38.000312 L 292.03594 11.931363 L 300.19056 11.931363 Z M 320.107105 24.689158 C 322.022912 24.17944 323.606181 23.064868 324.845565 21.450178 C 326.074474 19.825887 326.72035 17.909207 326.72035 15.73243 C 326.72035 13.004041 325.782957 10.702453 323.991961 8.817194 C 322.148596 6.942408 319.88803 6.005015 317.201536 6.005015 L 303.84936 6.005015 L 303.84936 38.000312 L 310.504501 38.000312 L 310.504501 25.376929 L 313.534881 25.376929 L 321.471299 38.000312 L 329.147622 38.000312 Z M 316.264143 19.867782 L 310.504501 19.867782 L 310.504501 11.931363 L 316.264143 11.931363 C 317.419737 11.931363 318.399025 12.31627 319.169712 13.086957 C 319.929925 13.857645 320.314832 14.795037 320.314832 15.899136 C 320.314832 17.055603 319.929925 17.992996 319.169712 18.763683 C 318.399025 19.523897 317.419737 19.867782 316.264143 19.867782 Z M 357.601075 6.005015 L 350.133353 6.005015 L 343.092432 17.096625 L 336.10388 6.005015 L 328.553241 6.005015 L 339.770535 22.981078 L 339.770535 38.000312 L 346.425676 38.000312 L 346.425676 22.898162 Z M 360.500534 38.000312 L 367.156547 38.000312 L 367.156547 6.005015 L 360.500534 6.005015 Z M 396.802252 6.005015 L 396.802252 28.022402 L 380.679792 6.005015 L 373.847473 6.005015 L 373.847473 38.000312 L 380.503486 38.000312 L 380.503486 15.899136 L 396.584051 38.000312 L 403.416371 38.000312 L 403.416371 6.005015 Z M 426.15033 19.659181 L 426.15033 25.585529 L 432.419691 25.585529 L 432.419691 28.740721 C 430.5868 30.876475 428.149927 31.896784 425.077653 31.896784 C 422.265474 31.896784 419.963886 30.959392 418.089101 29.084606 C 416.214315 27.20982 415.266448 24.814842 415.266448 22.002664 C 415.266448 19.190485 416.214315 16.836529 418.089101 14.961743 C 419.963886 13.086957 422.34839 12.108543 425.171043 12.108543 C 428.327107 12.108543 430.88879 13.295558 432.763576 15.607619 L 437.835448 11.639846 C 436.346442 9.754587 434.471656 8.306603 432.252985 7.202504 C 429.993292 6.129826 427.639336 5.578213 425.171043 5.578213 C 420.599289 5.578213 416.724906 7.202504 413.516474 10.400463 C 410.319388 13.597549 408.746593 17.482405 408.746593 22.002664 C 408.746593 26.563944 410.319388 30.4488 413.475452 33.646759 C 416.630643 36.843845 420.515499 38.427114 425.077653 38.427114 C 428.534834 38.427114 431.264097 37.447826 433.274167 35.47965 L 433.867675 38.000312 L 438.908998 38.000312 L 438.908998 19.659181 Z M 476.104469 6.005015 L 453.191584 6.005015 L 453.191584 11.931363 L 461.33573 11.931363 L 461.33573 38.000312 L 467.949849 38.000312 L 467.949849 11.931363 L 476.104469 11.931363 Z M 495.041726 38.427114 C 499.561984 38.427114 503.446841 36.843845 506.644799 33.646759 C 509.841885 30.4488 511.466176 26.563944 511.466176 22.002664 C 511.466176 17.482405 509.841885 13.597549 506.644799 10.400463 C 503.446841 7.202504 499.561984 5.578213 495.041726 5.578213 C 490.469971 5.578213 486.595589 7.202504 483.388029 10.400463 C 480.190071 13.597549 478.617275 17.482405 478.617275 22.002664 C 478.617275 26.563944 480.190071 30.4488 483.388029 33.646759 C 486.595589 36.843845 490.469971 38.427114 495.041726 38.427114 Z M 495.041726 31.896784 C 492.219946 31.896784 489.876464 30.959392 488.001678 29.042711 C 486.084998 27.167925 485.137131 24.814842 485.137131 22.002664 C 485.137131 19.23238 486.084998 16.878424 488.001678 14.961743 C 489.876464 13.086957 492.219946 12.108543 495.041726 12.108543 C 497.81201 12.108543 500.155492 13.086957 502.072172 14.961743 C 503.957432 16.878424 504.936719 19.23238 504.936719 22.002664 C 504.936719 24.814842 503.957432 27.167925 502.072172 29.042711 C 500.155492 30.959392 497.81201 31.896784 495.041726 31.896784 Z M 544.392756 19.659181 L 544.392756 25.585529 L 550.662989 25.585529 L 550.662989 28.740721 C 548.830098 30.876475 546.393225 31.896784 543.320078 31.896784 C 540.507899 31.896784 538.206312 30.959392 536.331526 29.084606 C 534.457613 27.20982 533.509746 24.814842 533.509746 22.002664 C 533.509746 19.190485 534.457613 16.836529 536.331526 14.961743 C 538.206312 13.086957 540.591689 12.108543 543.414341 12.108543 C 546.569532 12.108543 549.132088 13.295558 551.006874 15.607619 L 556.078746 11.639846 C 554.58974 9.754587 552.714954 8.306603 550.496283 7.202504 C 548.23659 6.129826 545.882634 5.578213 543.414341 5.578213 C 538.841714 5.578213 534.967331 7.202504 531.759772 10.400463 C 528.562686 13.597549 526.989891 17.482405 526.989891 22.002664 C 526.989891 26.563944 528.562686 30.4488 531.717877 33.646759 C 534.873941 36.843845 538.758797 38.427114 543.320078 38.427114 C 546.778133 38.427114 549.506522 37.447826 551.517465 35.47965 L 552.110973 38.000312 L 557.151424 38.000312 L 557.151424 19.659181 Z M 582.824119 11.889469 L 582.824119 6.005015 L 563.160688 6.005015 L 563.160688 38.000312 L 582.824119 38.000312 L 582.824119 32.115859 L 569.815829 32.115859 L 569.815829 24.950127 L 581.032249 24.950127 L 581.032249 19.0552 L 569.815829 19.0552 L 569.815829 11.889469 Z M 608.083104 6.005015 L 585.170219 6.005015 L 585.170219 11.931363 L 593.314366 11.931363 L 593.314366 38.000312 L 599.927611 38.000312 L 599.927611 11.931363 L 608.083104 11.931363 Z M 643.189079 6.005015 L 620.276194 6.005015 L 620.276194 11.931363 L 628.42034 11.931363 L 628.42034 38.000312 L 635.033586 38.000312 L 635.033586 11.931363 L 643.189079 11.931363 Z M 666.99048 6.005015 L 666.99048 19.013305 L 653.502146 19.013305 L 653.502146 6.005015 L 646.847006 6.005015 L 646.847006 38.000312 L 653.502146 38.000312 L 653.502146 24.950127 L 666.99048 24.950127 L 666.99048 38.000312 L 673.593252 38.000312 L 673.593252 6.005015 Z M 680.336545 38.000312 L 686.992559 38.000312 L 686.992559 6.005015 L 680.336545 6.005015 Z M 703.286088 38.427114 C 706.317341 38.427114 708.868551 37.572637 710.962411 35.864557 C 713.055398 34.156477 714.118475 31.896784 714.118475 29.042711 C 714.118475 27.460315 713.826958 26.054226 713.305893 24.855864 C 712.753407 23.668849 712.035088 22.731456 711.181485 22.044558 C 710.285114 21.367261 709.296225 20.721385 708.275043 20.210794 C 707.212839 19.701076 706.140161 19.273401 705.119852 18.930389 C 704.056775 18.586504 703.067887 18.200724 702.21341 17.82629 C 701.317912 17.482405 700.599593 17.013708 700.089002 16.409727 C 699.526916 15.857241 699.27642 15.180817 699.27642 14.41013 C 699.27642 13.430843 699.578411 12.660156 700.255708 12.149565 C 700.901584 11.639846 701.744714 11.378877 702.77637 11.378877 C 704.651156 11.378877 706.442152 12.31627 708.067315 14.149161 L 712.46189 10.056577 C 711.264401 8.692383 709.858312 7.630179 708.150232 6.817597 C 706.442152 6.005015 704.651156 5.578213 702.77637 5.578213 C 700.047108 5.578213 697.694024 6.389922 695.735449 8.015086 C 693.767273 9.629776 692.787986 11.931363 692.787986 14.836932 C 692.787986 16.836529 693.298577 18.502714 694.32936 19.825887 C 695.350542 21.190082 696.589926 22.169369 698.037037 22.815245 C 699.485021 23.449775 700.9845 24.012734 702.432484 24.523325 C 703.880468 25.033044 705.119852 25.626551 706.140161 26.314322 C 707.170944 27.032641 707.681536 27.929012 707.681536 29.001689 C 707.681536 30.021999 707.254734 30.83458 706.484047 31.428088 C 705.71336 32.032069 704.651156 32.282564 703.327983 32.282564 C 701.838977 32.282564 700.515804 31.896784 699.402104 31.136571 C 698.256111 30.365884 697.401635 29.344702 696.839548 28.022402 L 691.423791 31.386193 C 692.454574 33.480053 693.985475 35.188133 696.121229 36.469411 C 698.256111 37.791711 700.641488 38.427114 703.286088 38.427114 Z M 729.941562 38.000312 L 740.272958 38.000312 C 745.261913 38.000312 749.230559 36.510433 752.167549 33.438159 C 755.073118 30.407779 756.562124 26.605839 756.562124 22.002664 C 756.562124 17.44051 755.073118 13.639443 752.167549 10.567169 C 749.230559 7.535916 745.261913 6.005015 740.272958 6.005015 L 729.941562 6.005015 Z M 736.554808 32.073964 L 736.554808 11.931363 L 739.970968 11.931363 C 742.960326 11.931363 745.345703 12.868756 747.053783 14.754016 C 748.761863 16.627929 749.657361 19.0552 749.657361 22.002664 C 749.657361 24.992022 748.761863 27.376526 747.053783 29.251312 C 745.345703 31.136571 742.960326 32.073964 739.970968 32.073964 Z M 777.16993 38.427114 C 781.690188 38.427114 785.575045 36.843845 788.77213 33.646759 C 791.970089 30.4488 793.59438 26.563944 793.59438 22.002664 C 793.59438 17.482405 791.970089 13.597549 788.77213 10.400463 C 785.575045 7.202504 781.690188 5.578213 777.16993 5.578213 C 772.597303 5.578213 768.72292 7.202504 765.51536 10.400463 C 762.318275 13.597549 760.745479 17.482405 760.745479 22.002664 C 760.745479 26.563944 762.318275 30.4488 765.51536 33.646759 C 768.72292 36.843845 772.597303 38.427114 777.16993 38.427114 Z M 777.16993 31.896784 C 774.347277 31.896784 772.003795 30.959392 770.129009 29.042711 C 768.213202 27.167925 767.265335 24.814842 767.265335 22.002664 C 767.265335 19.23238 768.213202 16.878424 770.129009 14.961743 C 772.003795 13.086957 774.347277 12.108543 777.16993 12.108543 C 779.940214 12.108543 782.283696 13.086957 784.200376 14.961743 C 786.085636 16.878424 787.064051 19.23238 787.064051 22.002664 C 787.064051 24.814842 786.085636 27.167925 784.200376 29.042711 C 782.283696 30.959392 779.940214 31.896784 777.16993 31.896784 Z M 821.871526 6.005015 L 821.871526 28.022402 L 805.749066 6.005015 L 798.916746 6.005015 L 798.916746 38.000312 L 805.571887 38.000312 L 805.571887 15.899136 L 821.652452 38.000312 L 828.484772 38.000312 L 828.484772 6.005015 Z M 854.885386 11.889469 L 854.885386 6.005015 L 835.221083 6.005015 L 835.221083 38.000312 L 854.885386 38.000312 L 854.885386 32.115859 L 841.877096 32.115859 L 841.877096 24.950127 L 853.093517 24.950127 L 853.093517 19.0552 L 841.877096 19.0552 L 841.877096 11.889469 Z M 854.885386 11.889469 " stroke="#f8a9ad" stroke-width="1.599998" stroke-opacity="1" stroke-miterlimit="4"/><g fill="#9f3f73" fill-opacity="1"><g transform="translate(4482.504755, 1840.116369)"><g/></g></g><g fill="#9f3f73" fill-opacity="1"><g transform="translate(1701.463961, 2010.185799)"><g><path d="M 114.746094 0 L 147.011719 0 L 89.542969 -143.195312 L 56.132812 -143.195312 L -1.335938 0 L 30.929688 0 L 41.238281 -27.683594 L 104.4375 -27.683594 Z M 50.59375 -52.695312 L 72.933594 -112.644531 L 95.273438 -52.695312 Z M 50.59375 -52.695312 "/></g></g></g><g fill="#9f3f73" fill-opacity="1"><g transform="translate(1847.126911, 2010.185799)"><g><path d="M 57.46875 1.910156 C 71.023438 1.910156 82.480469 -1.910156 91.835938 -9.546875 C 101.191406 -17.183594 105.964844 -27.300781 105.964844 -40.09375 C 105.964844 -47.160156 104.628906 -53.460938 102.335938 -58.804688 C 99.855469 -64.152344 96.609375 -68.351562 92.789062 -71.40625 C 88.78125 -74.460938 84.390625 -77.324219 79.808594 -79.617188 C 75.035156 -81.90625 70.261719 -83.816406 65.679688 -85.34375 C 60.90625 -86.871094 56.515625 -88.589844 52.695312 -90.308594 C 48.6875 -91.835938 45.441406 -93.933594 43.148438 -96.609375 C 40.667969 -99.089844 39.523438 -102.144531 39.523438 -105.582031 C 39.523438 -109.972656 40.859375 -113.410156 43.914062 -115.699219 C 46.777344 -117.992188 50.59375 -119.136719 55.175781 -119.136719 C 63.578125 -119.136719 71.597656 -114.9375 78.851562 -106.726562 L 98.515625 -125.054688 C 93.171875 -131.164062 86.871094 -135.9375 79.234375 -139.566406 C 71.597656 -143.195312 63.578125 -145.101562 55.175781 -145.101562 C 42.957031 -145.101562 32.457031 -141.476562 23.675781 -134.21875 C 14.890625 -126.964844 10.5 -116.65625 10.5 -103.671875 C 10.5 -94.699219 12.792969 -87.253906 17.375 -81.335938 C 21.957031 -75.222656 27.492188 -70.832031 33.984375 -67.96875 C 40.476562 -65.105469 47.160156 -62.625 53.648438 -60.332031 C 60.140625 -58.042969 65.679688 -55.367188 70.261719 -52.3125 C 74.84375 -49.066406 77.132812 -45.058594 77.132812 -40.285156 C 77.132812 -35.703125 75.222656 -32.074219 71.789062 -29.402344 C 68.351562 -26.730469 63.578125 -25.585938 57.660156 -25.585938 C 50.976562 -25.585938 45.058594 -27.300781 40.09375 -30.738281 C 34.9375 -34.175781 31.121094 -38.757812 28.640625 -44.675781 L 4.390625 -29.59375 C 8.972656 -20.238281 15.847656 -12.601562 25.394531 -6.875 C 34.9375 -0.953125 45.632812 1.910156 57.46875 1.910156 Z M 57.46875 1.910156 "/></g></g></g><g fill="#9f3f73" fill-opacity="1"><g transform="translate(1958.617309, 2010.185799)"><g/></g></g><g fill="#9f3f73" fill-opacity="1"><g transform="translate(2009.398887, 2010.185799)"><g><path d="M 57.46875 1.910156 C 71.023438 1.910156 82.480469 -1.910156 91.835938 -9.546875 C 101.191406 -17.183594 105.964844 -27.300781 105.964844 -40.09375 C 105.964844 -47.160156 104.628906 -53.460938 102.335938 -58.804688 C 99.855469 -64.152344 96.609375 -68.351562 92.789062 -71.40625 C 88.78125 -74.460938 84.390625 -77.324219 79.808594 -79.617188 C 75.035156 -81.90625 70.261719 -83.816406 65.679688 -85.34375 C 60.90625 -86.871094 56.515625 -88.589844 52.695312 -90.308594 C 48.6875 -91.835938 45.441406 -93.933594 43.148438 -96.609375 C 40.667969 -99.089844 39.523438 -102.144531 39.523438 -105.582031 C 39.523438 -109.972656 40.859375 -113.410156 43.914062 -115.699219 C 46.777344 -117.992188 50.59375 -119.136719 55.175781 -119.136719 C 63.578125 -119.136719 71.597656 -114.9375 78.851562 -106.726562 L 98.515625 -125.054688 C 93.171875 -131.164062 86.871094 -135.9375 79.234375 -139.566406 C 71.597656 -143.195312 63.578125 -145.101562 55.175781 -145.101562 C 42.957031 -145.101562 32.457031 -141.476562 23.675781 -134.21875 C 14.890625 -126.964844 10.5 -116.65625 10.5 -103.671875 C 10.5 -94.699219 12.792969 -87.253906 17.375 -81.335938 C 21.957031 -75.222656 27.492188 -70.832031 33.984375 -67.96875 C 40.476562 -65.105469 47.160156 -62.625 53.648438 -60.332031 C 60.140625 -58.042969 65.679688 -55.367188 70.261719 -52.3125 C 74.84375 -49.066406 77.132812 -45.058594 77.132812 -40.285156 C 77.132812 -35.703125 75.222656 -32.074219 71.789062 -29.402344 C 68.351562 -26.730469 63.578125 -25.585938 57.660156 -25.585938 C 50.976562 -25.585938 45.058594 -27.300781 40.09375 -30.738281 C 34.9375 -34.175781 31.121094 -38.757812 28.640625 -44.675781 L 4.390625 -29.59375 C 8.972656 -20.238281 15.847656 -12.601562 25.394531 -6.875 C 34.9375 -0.953125 45.632812 1.910156 57.46875 1.910156 Z M 57.46875 1.910156 "/></g></g></g><g fill="#9f3f73" fill-opacity="1"><g transform="translate(2120.889285, 2010.185799)"><g><path d="M 82.863281 1.910156 C 103.101562 1.910156 120.472656 -5.15625 134.792969 -19.472656 C 149.113281 -33.792969 156.367188 -51.167969 156.367188 -71.597656 C 156.367188 -91.835938 149.113281 -109.210938 134.792969 -123.527344 C 120.472656 -137.847656 103.101562 -145.101562 82.863281 -145.101562 C 62.433594 -145.101562 45.058594 -137.847656 30.738281 -123.527344 C 16.417969 -109.210938 9.355469 -91.835938 9.355469 -71.597656 C 9.355469 -51.167969 16.417969 -33.792969 30.738281 -19.472656 C 45.058594 -5.15625 62.433594 1.910156 82.863281 1.910156 Z M 82.863281 -27.300781 C 70.261719 -27.300781 59.757812 -31.503906 51.359375 -40.09375 C 42.765625 -48.496094 38.566406 -58.996094 38.566406 -71.597656 C 38.566406 -84.007812 42.765625 -94.507812 51.359375 -103.101562 C 59.757812 -111.5 70.261719 -115.890625 82.863281 -115.890625 C 95.273438 -115.890625 105.773438 -111.5 114.363281 -103.101562 C 122.765625 -94.507812 127.15625 -84.007812 127.15625 -71.597656 C 127.15625 -58.996094 122.765625 -48.496094 114.363281 -40.09375 C 105.773438 -31.503906 95.273438 -27.300781 82.863281 -27.300781 Z M 82.863281 -27.300781 "/></g></g></g><g fill="#9f3f73" fill-opacity="1"><g transform="translate(2286.59766, 2010.185799)"><g><path d="M 82.863281 1.910156 C 103.101562 1.910156 120.472656 -5.15625 134.792969 -19.472656 C 149.113281 -33.792969 156.367188 -51.167969 156.367188 -71.597656 C 156.367188 -91.835938 149.113281 -109.210938 134.792969 -123.527344 C 120.472656 -137.847656 103.101562 -145.101562 82.863281 -145.101562 C 62.433594 -145.101562 45.058594 -137.847656 30.738281 -123.527344 C 16.417969 -109.210938 9.355469 -91.835938 9.355469 -71.597656 C 9.355469 -51.167969 16.417969 -33.792969 30.738281 -19.472656 C 45.058594 -5.15625 62.433594 1.910156 82.863281 1.910156 Z M 82.863281 -27.300781 C 70.261719 -27.300781 59.757812 -31.503906 51.359375 -40.09375 C 42.765625 -48.496094 38.566406 -58.996094 38.566406 -71.597656 C 38.566406 -84.007812 42.765625 -94.507812 51.359375 -103.101562 C 59.757812 -111.5 70.261719 -115.890625 82.863281 -115.890625 C 95.273438 -115.890625 105.773438 -111.5 114.363281 -103.101562 C 122.765625 -94.507812 127.15625 -84.007812 127.15625 -71.597656 C 127.15625 -58.996094 122.765625 -48.496094 114.363281 -40.09375 C 105.773438 -31.503906 95.273438 -27.300781 82.863281 -27.300781 Z M 82.863281 -27.300781 "/></g></g></g><g fill="#9f3f73" fill-opacity="1"><g transform="translate(2452.306036, 2010.185799)"><g><path d="M 117.226562 -143.195312 L 117.226562 -44.675781 L 45.058594 -143.195312 L 14.511719 -143.195312 L 14.511719 0 L 44.292969 0 L 44.292969 -98.898438 L 116.273438 0 L 146.820312 0 L 146.820312 -143.195312 Z M 117.226562 -143.195312 "/></g></g></g><g fill="#9f3f73" fill-opacity="1"><g transform="translate(2613.623509, 2010.185799)"><g/></g></g><g fill="#9f3f73" fill-opacity="1"><g transform="translate(2664.405088, 2010.185799)"><g><path d="M 114.746094 0 L 147.011719 0 L 89.542969 -143.195312 L 56.132812 -143.195312 L -1.335938 0 L 30.929688 0 L 41.238281 -27.683594 L 104.4375 -27.683594 Z M 50.59375 -52.695312 L 72.933594 -112.644531 L 95.273438 -52.695312 Z M 50.59375 -52.695312 "/></g></g></g><g fill="#9f3f73" fill-opacity="1"><g transform="translate(2810.068037, 2010.185799)"><g><path d="M 57.46875 1.910156 C 71.023438 1.910156 82.480469 -1.910156 91.835938 -9.546875 C 101.191406 -17.183594 105.964844 -27.300781 105.964844 -40.09375 C 105.964844 -47.160156 104.628906 -53.460938 102.335938 -58.804688 C 99.855469 -64.152344 96.609375 -68.351562 92.789062 -71.40625 C 88.78125 -74.460938 84.390625 -77.324219 79.808594 -79.617188 C 75.035156 -81.90625 70.261719 -83.816406 65.679688 -85.34375 C 60.90625 -86.871094 56.515625 -88.589844 52.695312 -90.308594 C 48.6875 -91.835938 45.441406 -93.933594 43.148438 -96.609375 C 40.667969 -99.089844 39.523438 -102.144531 39.523438 -105.582031 C 39.523438 -109.972656 40.859375 -113.410156 43.914062 -115.699219 C 46.777344 -117.992188 50.59375 -119.136719 55.175781 -119.136719 C 63.578125 -119.136719 71.597656 -114.9375 78.851562 -106.726562 L 98.515625 -125.054688 C 93.171875 -131.164062 86.871094 -135.9375 79.234375 -139.566406 C 71.597656 -143.195312 63.578125 -145.101562 55.175781 -145.101562 C 42.957031 -145.101562 32.457031 -141.476562 23.675781 -134.21875 C 14.890625 -126.964844 10.5 -116.65625 10.5 -103.671875 C 10.5 -94.699219 12.792969 -87.253906 17.375 -81.335938 C 21.957031 -75.222656 27.492188 -70.832031 33.984375 -67.96875 C 40.476562 -65.105469 47.160156 -62.625 53.648438 -60.332031 C 60.140625 -58.042969 65.679688 -55.367188 70.261719 -52.3125 C 74.84375 -49.066406 77.132812 -45.058594 77.132812 -40.285156 C 77.132812 -35.703125 75.222656 -32.074219 71.789062 -29.402344 C 68.351562 -26.730469 63.578125 -25.585938 57.660156 -25.585938 C 50.976562 -25.585938 45.058594 -27.300781 40.09375 -30.738281 C 34.9375 -34.175781 31.121094 -38.757812 28.640625 -44.675781 L 4.390625 -29.59375 C 8.972656 -20.238281 15.847656 -12.601562 25.394531 -6.875 C 34.9375 -0.953125 45.632812 1.910156 57.46875 1.910156 Z M 57.46875 1.910156 "/></g></g></g><g fill="#9f3f73" fill-opacity="1"><g transform="translate(2921.558435, 2010.185799)"><g/></g></g><g fill="#9f3f73" fill-opacity="1"><g transform="translate(2972.340082, 2010.185799)"><g><path d="M 74.269531 -143.195312 L 14.511719 -143.195312 L 14.511719 0 L 44.292969 0 L 44.292969 -58.613281 L 74.269531 -58.613281 C 86.105469 -58.613281 96.226562 -62.625 104.4375 -70.640625 C 112.644531 -78.660156 116.847656 -88.589844 116.847656 -100.425781 C 116.847656 -112.265625 112.644531 -122.191406 104.4375 -130.59375 C 96.035156 -138.992188 86.105469 -143.195312 74.269531 -143.195312 Z M 69.6875 -83.433594 L 44.292969 -83.433594 L 44.292969 -116.847656 L 69.6875 -116.847656 C 75.035156 -116.847656 79.425781 -115.128906 82.863281 -112.074219 C 86.296875 -109.019531 88.207031 -105.007812 88.207031 -100.042969 C 88.207031 -95.082031 86.296875 -91.070312 82.863281 -88.015625 C 79.425781 -84.960938 75.035156 -83.433594 69.6875 -83.433594 Z M 69.6875 -83.433594 "/></g></g></g><g fill="#9f3f73" fill-opacity="1"><g transform="translate(3090.321323, 2010.185799)"><g><path d="M 82.863281 1.910156 C 103.101562 1.910156 120.472656 -5.15625 134.792969 -19.472656 C 149.113281 -33.792969 156.367188 -51.167969 156.367188 -71.597656 C 156.367188 -91.835938 149.113281 -109.210938 134.792969 -123.527344 C 120.472656 -137.847656 103.101562 -145.101562 82.863281 -145.101562 C 62.433594 -145.101562 45.058594 -137.847656 30.738281 -123.527344 C 16.417969 -109.210938 9.355469 -91.835938 9.355469 -71.597656 C 9.355469 -51.167969 16.417969 -33.792969 30.738281 -19.472656 C 45.058594 -5.15625 62.433594 1.910156 82.863281 1.910156 Z M 82.863281 -27.300781 C 70.261719 -27.300781 59.757812 -31.503906 51.359375 -40.09375 C 42.765625 -48.496094 38.566406 -58.996094 38.566406 -71.597656 C 38.566406 -84.007812 42.765625 -94.507812 51.359375 -103.101562 C 59.757812 -111.5 70.261719 -115.890625 82.863281 -115.890625 C 95.273438 -115.890625 105.773438 -111.5 114.363281 -103.101562 C 122.765625 -94.507812 127.15625 -84.007812 127.15625 -71.597656 C 127.15625 -58.996094 122.765625 -48.496094 114.363281 -40.09375 C 105.773438 -31.503906 95.273438 -27.300781 82.863281 -27.300781 Z M 82.863281 -27.300781 "/></g></g></g><g fill="#9f3f73" fill-opacity="1"><g transform="translate(3256.029698, 2010.185799)"><g><path d="M 57.46875 1.910156 C 71.023438 1.910156 82.480469 -1.910156 91.835938 -9.546875 C 101.191406 -17.183594 105.964844 -27.300781 105.964844 -40.09375 C 105.964844 -47.160156 104.628906 -53.460938 102.335938 -58.804688 C 99.855469 -64.152344 96.609375 -68.351562 92.789062 -71.40625 C 88.78125 -74.460938 84.390625 -77.324219 79.808594 -79.617188 C 75.035156 -81.90625 70.261719 -83.816406 65.679688 -85.34375 C 60.90625 -86.871094 56.515625 -88.589844 52.695312 -90.308594 C 48.6875 -91.835938 45.441406 -93.933594 43.148438 -96.609375 C 40.667969 -99.089844 39.523438 -102.144531 39.523438 -105.582031 C 39.523438 -109.972656 40.859375 -113.410156 43.914062 -115.699219 C 46.777344 -117.992188 50.59375 -119.136719 55.175781 -119.136719 C 63.578125 -119.136719 71.597656 -114.9375 78.851562 -106.726562 L 98.515625 -125.054688 C 93.171875 -131.164062 86.871094 -135.9375 79.234375 -139.566406 C 71.597656 -143.195312 63.578125 -145.101562 55.175781 -145.101562 C 42.957031 -145.101562 32.457031 -141.476562 23.675781 -134.21875 C 14.890625 -126.964844 10.5 -116.65625 10.5 -103.671875 C 10.5 -94.699219 12.792969 -87.253906 17.375 -81.335938 C 21.957031 -75.222656 27.492188 -70.832031 33.984375 -67.96875 C 40.476562 -65.105469 47.160156 -62.625 53.648438 -60.332031 C 60.140625 -58.042969 65.679688 -55.367188 70.261719 -52.3125 C 74.84375 -49.066406 77.132812 -45.058594 77.132812 -40.285156 C 77.132812 -35.703125 75.222656 -32.074219 71.789062 -29.402344 C 68.351562 -26.730469 63.578125 -25.585938 57.660156 -25.585938 C 50.976562 -25.585938 45.058594 -27.300781 40.09375 -30.738281 C 34.9375 -34.175781 31.121094 -38.757812 28.640625 -44.675781 L 4.390625 -29.59375 C 8.972656 -20.238281 15.847656 -12.601562 25.394531 -6.875 C 34.9375 -0.953125 45.632812 1.910156 57.46875 1.910156 Z M 57.46875 1.910156 "/></g></g></g><g fill="#9f3f73" fill-opacity="1"><g transform="translate(3367.520028, 2010.185799)"><g><path d="M 57.46875 1.910156 C 71.023438 1.910156 82.480469 -1.910156 91.835938 -9.546875 C 101.191406 -17.183594 105.964844 -27.300781 105.964844 -40.09375 C 105.964844 -47.160156 104.628906 -53.460938 102.335938 -58.804688 C 99.855469 -64.152344 96.609375 -68.351562 92.789062 -71.40625 C 88.78125 -74.460938 84.390625 -77.324219 79.808594 -79.617188 C 75.035156 -81.90625 70.261719 -83.816406 65.679688 -85.34375 C 60.90625 -86.871094 56.515625 -88.589844 52.695312 -90.308594 C 48.6875 -91.835938 45.441406 -93.933594 43.148438 -96.609375 C 40.667969 -99.089844 39.523438 -102.144531 39.523438 -105.582031 C 39.523438 -109.972656 40.859375 -113.410156 43.914062 -115.699219 C 46.777344 -117.992188 50.59375 -119.136719 55.175781 -119.136719 C 63.578125 -119.136719 71.597656 -114.9375 78.851562 -106.726562 L 98.515625 -125.054688 C 93.171875 -131.164062 86.871094 -135.9375 79.234375 -139.566406 C 71.597656 -143.195312 63.578125 -145.101562 55.175781 -145.101562 C 42.957031 -145.101562 32.457031 -141.476562 23.675781 -134.21875 C 14.890625 -126.964844 10.5 -116.65625 10.5 -103.671875 C 10.5 -94.699219 12.792969 -87.253906 17.375 -81.335938 C 21.957031 -75.222656 27.492188 -70.832031 33.984375 -67.96875 C 40.476562 -65.105469 47.160156 -62.625 53.648438 -60.332031 C 60.140625 -58.042969 65.679688 -55.367188 70.261719 -52.3125 C 74.84375 -49.066406 77.132812 -45.058594 77.132812 -40.285156 C 77.132812 -35.703125 75.222656 -32.074219 71.789062 -29.402344 C 68.351562 -26.730469 63.578125 -25.585938 57.660156 -25.585938 C 50.976562 -25.585938 45.058594 -27.300781 40.09375 -30.738281 C 34.9375 -34.175781 31.121094 -38.757812 28.640625 -44.675781 L 4.390625 -29.59375 C 8.972656 -20.238281 15.847656 -12.601562 25.394531 -6.875 C 34.9375 -0.953125 45.632812 1.910156 57.46875 1.910156 Z M 57.46875 1.910156 "/></g></g></g><g fill="#9f3f73" fill-opacity="1"><g transform="translate(3479.010359, 2010.185799)"><g><path d="M 15.65625 0 L 45.441406 0 L 45.441406 -143.195312 L 15.65625 -143.195312 Z M 15.65625 0 "/></g></g></g><g fill="#9f3f73" fill-opacity="1"><g transform="translate(3539.909983, 2010.185799)"><g><path d="M 98.136719 -73.125 C 109.210938 -79.234375 114.9375 -89.351562 114.9375 -103.480469 C 114.9375 -115.699219 110.925781 -125.246094 102.910156 -132.503906 C 94.890625 -139.566406 84.578125 -143.195312 72.359375 -143.195312 L 14.511719 -143.195312 L 14.511719 0 L 79.617188 0 C 91.835938 0 101.761719 -3.4375 109.78125 -10.308594 C 117.800781 -17.183594 121.808594 -26.730469 121.808594 -38.949219 C 121.808594 -55.941406 113.792969 -67.398438 98.136719 -73.125 Z M 85.34375 -100.425781 C 85.34375 -95.84375 83.625 -92.027344 80.378906 -88.78125 C 77.132812 -85.535156 73.316406 -84.007812 68.734375 -84.007812 L 44.105469 -84.007812 L 44.105469 -116.65625 L 68.734375 -116.65625 C 73.316406 -116.65625 77.132812 -114.9375 80.378906 -111.882812 C 83.625 -108.828125 85.34375 -105.007812 85.34375 -100.425781 Z M 75.222656 -26.539062 L 44.105469 -26.539062 L 44.105469 -59.1875 L 75.222656 -59.1875 C 79.808594 -59.1875 83.816406 -57.46875 87.0625 -54.222656 C 90.308594 -50.976562 92.027344 -47.160156 92.027344 -42.765625 C 92.027344 -38.183594 90.308594 -34.367188 87.0625 -31.3125 C 83.816406 -28.066406 79.808594 -26.539062 75.222656 -26.539062 Z M 75.222656 -26.539062 "/></g></g></g><g fill="#9f3f73" fill-opacity="1"><g transform="translate(3668.963907, 2010.185799)"><g><path d="M 44.292969 -26.539062 L 44.292969 -143.195312 L 14.511719 -143.195312 L 14.511719 0 L 92.40625 0 L 92.40625 -26.539062 Z M 44.292969 -26.539062 "/></g></g></g><g fill="#9f3f73" fill-opacity="1"><g transform="translate(3761.93621, 2010.185799)"><g><path d="M 103.671875 -116.847656 L 103.671875 -143.195312 L 15.65625 -143.195312 L 15.65625 0 L 103.671875 0 L 103.671875 -26.347656 L 45.441406 -26.347656 L 45.441406 -58.421875 L 95.652344 -58.421875 L 95.652344 -84.769531 L 45.441406 -84.769531 L 45.441406 -116.847656 Z M 103.671875 -116.847656 "/></g></g></g><g fill="#9f3f73" fill-opacity="1"><g transform="translate(3874.190305, 2010.185799)"><g><path d="M 24.628906 1.910156 C 29.019531 1.910156 32.839844 0.382812 36.085938 -2.863281 C 39.140625 -5.917969 40.859375 -9.738281 40.859375 -14.128906 C 40.859375 -18.328125 39.140625 -22.148438 36.085938 -25.394531 C 32.839844 -28.640625 29.019531 -30.355469 24.628906 -30.355469 C 20.238281 -30.355469 16.417969 -28.640625 13.363281 -25.394531 C 10.117188 -22.148438 8.589844 -18.328125 8.589844 -14.128906 C 8.589844 -9.738281 10.117188 -5.917969 13.363281 -2.863281 C 16.417969 0.382812 20.238281 1.910156 24.628906 1.910156 Z M 24.628906 1.910156 "/></g></g></g><path stroke-linecap="butt" transform="matrix(4.475511, 0, 0, 4.475511, 640.47422, 1662.62058)" fill="none" stroke-linejoin="miter" d="M 261.047861 75.999636 L 268.255487 75.999636 L 255.413903 44.005212 L 247.946181 44.005212 L 235.104596 75.999636 L 242.321823 75.999636 L 244.623411 69.813192 L 258.746273 69.813192 Z M 246.706797 64.23073 L 251.705353 50.827059 L 256.694308 64.23073 Z M 280.795081 76.427311 C 283.825461 76.427311 286.377544 75.572835 288.470531 73.864755 C 290.564391 72.156675 291.626595 69.896982 291.626595 67.042908 C 291.626595 65.45964 291.335078 64.05355 290.814013 62.856061 C 290.261527 61.669046 289.543209 60.731653 288.689605 60.043883 C 287.793234 59.367459 286.804345 58.721583 285.783163 58.210992 C 284.720959 57.7004 283.648282 57.273599 282.627972 56.929713 C 281.565768 56.586701 280.576007 56.200921 279.72153 55.826487 C 278.826032 55.482602 278.107713 55.013906 277.597122 54.409924 C 277.035036 53.857439 276.784541 53.181015 276.784541 52.410327 C 276.784541 51.43104 277.086531 50.660353 277.763828 50.149762 C 278.409704 49.639171 279.252834 49.379075 280.28449 49.379075 C 282.159276 49.379075 283.950272 50.316468 285.575436 52.149359 L 289.97001 48.056775 C 288.772521 46.691707 287.366432 45.629503 285.658352 44.817794 C 283.950272 44.005212 282.159276 43.578411 280.28449 43.578411 C 277.555228 43.578411 275.202145 44.39012 273.24357 46.015283 C 271.275394 47.6291 270.296106 49.93156 270.296106 52.837129 C 270.296106 54.836726 270.806697 56.502912 271.83748 57.826084 C 272.858662 59.190279 274.098046 60.169567 275.545157 60.81457 C 276.993141 61.449972 278.492621 62.012931 279.940605 62.52265 C 281.388589 63.033241 282.627972 63.626748 283.648282 64.314519 C 284.679065 65.032838 285.189656 65.928336 285.189656 67.001014 C 285.189656 68.022196 284.762854 68.834778 283.992167 69.428285 C 283.22148 70.032267 282.159276 70.281889 280.836103 70.281889 C 279.347097 70.281889 278.023924 69.896982 276.910225 69.136768 C 275.764231 68.366081 274.909755 67.344899 274.347668 66.022599 L 268.931911 69.386391 C 269.962694 71.480251 271.493595 73.18833 273.629349 74.468736 C 275.764231 75.791909 278.149608 76.427311 280.795081 76.427311 Z M 317.052286 76.427311 C 320.083539 76.427311 322.634749 75.572835 324.728609 73.864755 C 326.821596 72.156675 327.8838 69.896982 327.8838 67.042908 C 327.8838 65.45964 327.592283 64.05355 327.072091 62.856061 C 326.519605 61.669046 325.801286 60.731653 324.94681 60.043883 C 324.051312 59.367459 323.061551 58.721583 322.041241 58.210992 C 320.979037 57.7004 319.906359 57.273599 318.885177 56.929713 C 317.822973 56.586701 316.834085 56.200921 315.979608 55.826487 C 315.08411 55.482602 314.364918 55.013906 313.8552 54.409924 C 313.292241 53.857439 313.042618 53.181015 313.042618 52.410327 C 313.042618 51.43104 313.344609 50.660353 314.021906 50.149762 C 314.667782 49.639171 315.510912 49.379075 316.541695 49.379075 C 318.416481 49.379075 320.20835 50.316468 321.832641 52.149359 L 326.228088 48.056775 C 325.030599 46.691707 323.62451 45.629503 321.91643 44.817794 C 320.20835 44.005212 318.416481 43.578411 316.541695 43.578411 C 313.813306 43.578411 311.45935 44.39012 309.501647 46.015283 C 307.533471 47.6291 306.554184 49.93156 306.554184 52.837129 C 306.554184 54.836726 307.064775 56.502912 308.095558 57.826084 C 309.115867 59.190279 310.355251 60.169567 311.803235 60.81457 C 313.251219 61.449972 314.750698 62.012931 316.198682 62.52265 C 317.645794 63.033241 318.885177 63.626748 319.906359 64.314519 C 320.937142 65.032838 321.447733 65.928336 321.447733 67.001014 C 321.447733 68.022196 321.020932 68.834778 320.250245 69.428285 C 319.478685 70.032267 318.416481 70.281889 317.094181 70.281889 C 315.604302 70.281889 314.282002 69.896982 313.16743 69.136768 C 312.022309 68.366081 311.167833 67.344899 310.605746 66.022599 L 305.189989 69.386391 C 306.220772 71.480251 307.751673 73.18833 309.886554 74.468736 C 312.022309 75.791909 314.406813 76.427311 317.052286 76.427311 Z M 347.639748 76.427311 C 352.160006 76.427311 356.044863 74.844042 359.241949 71.646084 C 362.439907 68.448998 364.064198 64.564141 364.064198 60.002861 C 364.064198 55.482602 362.439907 51.597746 359.241949 48.399787 C 356.044863 45.202701 352.160006 43.578411 347.639748 43.578411 C 343.067994 43.578411 339.193611 45.202701 335.985179 48.399787 C 332.788093 51.597746 331.215298 55.482602 331.215298 60.002861 C 331.215298 64.564141 332.788093 68.448998 335.985179 71.646084 C 339.193611 74.844042 343.067994 76.427311 347.639748 76.427311 Z M 347.639748 69.896982 C 344.817095 69.896982 342.473613 68.959589 340.5997 67.042908 C 338.68302 65.168123 337.735153 62.814167 337.735153 60.002861 C 337.735153 57.231704 338.68302 54.878621 340.5997 52.96194 C 342.473613 51.087155 344.817095 50.107867 347.639748 50.107867 C 350.410032 50.107867 352.753514 51.087155 354.670194 52.96194 C 356.555454 54.878621 357.533869 57.231704 357.533869 60.002861 C 357.533869 62.814167 356.555454 65.168123 354.670194 67.042908 C 352.753514 68.959589 350.410032 69.896982 347.639748 69.896982 Z M 384.665021 76.427311 C 389.18528 76.427311 393.070137 74.844042 396.268095 71.646084 C 399.465181 68.448998 401.089472 64.564141 401.089472 60.002861 C 401.089472 55.482602 399.465181 51.597746 396.268095 48.399787 C 393.070137 45.202701 389.18528 43.578411 384.665021 43.578411 C 380.093267 43.578411 376.218885 45.202701 373.011325 48.399787 C 369.813366 51.597746 368.240571 55.482602 368.240571 60.002861 C 368.240571 64.564141 369.813366 68.448998 373.011325 71.646084 C 376.218885 74.844042 380.093267 76.427311 384.665021 76.427311 Z M 384.665021 69.896982 C 381.843242 69.896982 379.49976 68.959589 377.624974 67.042908 C 375.708293 65.168123 374.760427 62.814167 374.760427 60.002861 C 374.760427 57.231704 375.708293 54.878621 377.624974 52.96194 C 379.49976 51.087155 381.843242 50.107867 384.665021 50.107867 C 387.436178 50.107867 389.778788 51.087155 391.695468 52.96194 C 393.580728 54.878621 394.560015 57.231704 394.560015 60.002861 C 394.560015 62.814167 393.580728 65.168123 391.695468 67.042908 C 389.778788 68.959589 387.436178 69.896982 384.665021 69.896982 Z M 429.366618 44.005212 L 429.366618 66.022599 L 413.244158 44.005212 L 406.411838 44.005212 L 406.411838 75.999636 L 413.066979 75.999636 L 413.066979 53.899333 L 429.148416 75.999636 L 435.980736 75.999636 L 435.980736 44.005212 Z M 476.205714 75.999636 L 483.41334 75.999636 L 470.571756 44.005212 L 463.104034 44.005212 L 450.261577 75.999636 L 457.479677 75.999636 L 459.781264 69.813192 L 473.904127 69.813192 Z M 461.86465 64.23073 L 466.863206 50.827059 L 471.852161 64.23073 Z M 495.952061 76.427311 C 498.983314 76.427311 501.534524 75.572835 503.628384 73.864755 C 505.721371 72.156675 506.784448 69.896982 506.784448 67.042908 C 506.784448 65.45964 506.492058 64.05355 505.971866 62.856061 C 505.419381 61.669046 504.701062 60.731653 503.847458 60.043883 C 502.951087 59.367459 501.962199 58.721583 500.941017 58.210992 C 499.878813 57.7004 498.806135 57.273599 497.785825 56.929713 C 496.722749 56.586701 495.73386 56.200921 494.879384 55.826487 C 493.983886 55.482602 493.265567 55.013906 492.754976 54.409924 C 492.192889 53.857439 491.942394 53.181015 491.942394 52.410327 C 491.942394 51.43104 492.244385 50.660353 492.921681 50.149762 C 493.567557 49.639171 494.410687 49.379075 495.442343 49.379075 C 497.317129 49.379075 499.108125 50.316468 500.733289 52.149359 L 505.127864 48.056775 C 503.930375 46.691707 502.524285 45.629503 500.816205 44.817794 C 499.108125 44.005212 497.317129 43.578411 495.442343 43.578411 C 492.713081 43.578411 490.359998 44.39012 488.401423 46.015283 C 486.433247 47.6291 485.453959 49.93156 485.453959 52.837129 C 485.453959 54.836726 485.96455 56.502912 486.995333 57.826084 C 488.016516 59.190279 489.255899 60.169567 490.70301 60.81457 C 492.150994 61.449972 493.650474 62.012931 495.098458 62.52265 C 496.546442 63.033241 497.785825 63.626748 498.806135 64.314519 C 499.836918 65.032838 500.347509 65.928336 500.347509 67.001014 C 500.347509 68.022196 499.920707 68.834778 499.15002 69.428285 C 498.379333 70.032267 497.317129 70.281889 495.993956 70.281889 C 494.50495 70.281889 493.181777 69.896982 492.068078 69.136768 C 490.922085 68.366081 490.067608 67.344899 489.505522 66.022599 L 484.089765 69.386391 C 485.120548 71.480251 486.651448 73.18833 488.787203 74.468736 C 490.922085 75.791909 493.307461 76.427311 495.952061 76.427311 Z M 535.959711 44.005212 L 522.607535 44.005212 L 522.607535 75.999636 L 529.262676 75.999636 L 529.262676 62.90843 L 535.959711 62.90843 C 538.605184 62.90843 540.864877 62.012931 542.708241 60.210588 C 544.542005 58.419592 545.478525 56.200921 545.478525 53.565922 C 545.478525 50.920449 544.542005 48.701778 542.708241 46.817391 C 540.823855 44.942605 538.605184 44.005212 535.959711 44.005212 Z M 534.938529 57.357388 L 529.262676 57.357388 L 529.262676 49.889666 L 534.938529 49.889666 C 536.13689 49.889666 537.115305 50.274573 537.885992 50.962343 C 538.647078 51.63964 539.07388 52.535139 539.07388 53.649711 C 539.07388 54.752937 538.647078 55.649308 537.885992 56.336206 C 537.115305 57.013503 536.13689 57.357388 534.938529 57.357388 Z M 564.248203 76.427311 C 568.768462 76.427311 572.652446 74.844042 575.850404 71.646084 C 579.04749 68.448998 580.672654 64.564141 580.672654 60.002861 C 580.672654 55.482602 579.04749 51.597746 575.850404 48.399787 C 572.652446 45.202701 568.768462 43.578411 564.248203 43.578411 C 559.675577 43.578411 555.801194 45.202701 552.593634 48.399787 C 549.395676 51.597746 547.823753 55.482602 547.823753 60.002861 C 547.823753 64.564141 549.395676 68.448998 552.593634 71.646084 C 555.801194 74.844042 559.675577 76.427311 564.248203 76.427311 Z M 564.248203 69.896982 C 561.425551 69.896982 559.082069 68.959589 557.207283 67.042908 C 555.290603 65.168123 554.343609 62.814167 554.343609 60.002861 C 554.343609 57.231704 555.290603 54.878621 557.207283 52.96194 C 559.082069 51.087155 561.425551 50.107867 564.248203 50.107867 C 567.018488 50.107867 569.36197 51.087155 571.277777 52.96194 C 573.163037 54.878621 574.142324 57.231704 574.142324 60.002861 C 574.142324 62.814167 573.163037 65.168123 571.277777 67.042908 C 569.36197 68.959589 567.018488 69.896982 564.248203 69.896982 Z M 595.597624 76.427311 C 598.628004 76.427311 601.180087 75.572835 603.273074 73.864755 C 605.366934 72.156675 606.429138 69.896982 606.429138 67.042908 C 606.429138 65.45964 606.137621 64.05355 605.616556 62.856061 C 605.064943 61.669046 604.345752 60.731653 603.492148 60.043883 C 602.595777 59.367459 601.606889 58.721583 600.585707 58.210992 C 599.523503 57.7004 598.450825 57.273599 597.430515 56.929713 C 596.368311 56.586701 595.37855 56.200921 594.524947 55.826487 C 593.628576 55.482602 592.910257 55.013906 592.399666 54.409924 C 591.837579 53.857439 591.587084 53.181015 591.587084 52.410327 C 591.587084 51.43104 591.889947 50.660353 592.566372 50.149762 C 593.212247 49.639171 594.05625 49.379075 595.087033 49.379075 C 596.961819 49.379075 598.752815 50.316468 600.377979 52.149359 L 604.772554 48.056775 C 603.575065 46.691707 602.168975 45.629503 600.460895 44.817794 C 598.752815 44.005212 596.961819 43.578411 595.087033 43.578411 C 592.358644 43.578411 590.004688 44.39012 588.046113 46.015283 C 586.077937 47.6291 585.098649 49.93156 585.098649 52.837129 C 585.098649 54.836726 585.60924 56.502912 586.640024 57.826084 C 587.661206 59.190279 588.900589 60.169567 590.348573 60.81457 C 591.795684 61.449972 593.295164 62.012931 594.743148 62.52265 C 596.191132 63.033241 597.430515 63.626748 598.450825 64.314519 C 599.482481 65.032838 599.992199 65.928336 599.992199 67.001014 C 599.992199 68.022196 599.565397 68.834778 598.79471 69.428285 C 598.024023 70.032267 596.961819 70.281889 595.638646 70.281889 C 594.14964 70.281889 592.826467 69.896982 591.712768 69.136768 C 590.566775 68.366081 589.713171 67.344899 589.150212 66.022599 L 583.734455 69.386391 C 584.766111 71.480251 586.297011 73.18833 588.431893 74.468736 C 590.566775 75.791909 592.952151 76.427311 595.597624 76.427311 Z M 620.50836 76.427311 C 623.539613 76.427311 626.090823 75.572835 628.184683 73.864755 C 630.27767 72.156675 631.339874 69.896982 631.339874 67.042908 C 631.339874 65.45964 631.048357 64.05355 630.528165 62.856061 C 629.97568 61.669046 629.257361 60.731653 628.402884 60.043883 C 627.507386 59.367459 626.517625 58.721583 625.497316 58.210992 C 624.435111 57.7004 623.362434 57.273599 622.341252 56.929713 C 621.279048 56.586701 620.290159 56.200921 619.435683 55.826487 C 618.540184 55.482602 617.820993 55.013906 617.311275 54.409924 C 616.748315 53.857439 616.498693 53.181015 616.498693 52.410327 C 616.498693 51.43104 616.800684 50.660353 617.47798 50.149762 C 618.123856 49.639171 618.966986 49.379075 619.997769 49.379075 C 621.872555 49.379075 623.664424 50.316468 625.288715 52.149359 L 629.684163 48.056775 C 628.486674 46.691707 627.080584 45.629503 625.372504 44.817794 C 623.664424 44.005212 621.872555 43.578411 619.997769 43.578411 C 617.26938 43.578411 614.915424 44.39012 612.957722 46.015283 C 610.989546 47.6291 610.010258 49.93156 610.010258 52.837129 C 610.010258 54.836726 610.520849 56.502912 611.551632 57.826084 C 612.571942 59.190279 613.811325 60.169567 615.259309 60.81457 C 616.707293 61.449972 618.206773 62.012931 619.654757 62.52265 C 621.101868 63.033241 622.341252 63.626748 623.362434 64.314519 C 624.393217 65.032838 624.903808 65.928336 624.903808 67.001014 C 624.903808 68.022196 624.477006 68.834778 623.706319 69.428285 C 622.934759 70.032267 621.872555 70.281889 620.550255 70.281889 C 619.060376 70.281889 617.738076 69.896982 616.623504 69.136768 C 615.478383 68.366081 614.623907 67.344899 614.06182 66.022599 L 608.646064 69.386391 C 609.676847 71.480251 611.207747 73.18833 613.342629 74.468736 C 615.478383 75.791909 617.862888 76.427311 620.50836 76.427311 Z M 636.077461 75.999636 L 642.732602 75.999636 L 642.732602 44.005212 L 636.077461 44.005212 Z M 668.108543 59.658976 C 670.58731 58.294781 671.868588 56.034215 671.868588 52.879024 C 671.868588 50.149762 670.97309 48.01488 669.181221 46.389717 C 667.390224 44.817794 665.088637 44.005212 662.349774 44.005212 L 649.4244 44.005212 L 649.4244 75.999636 L 663.974064 75.999636 C 666.702454 75.999636 668.921125 75.228949 670.712994 73.698049 C 672.503991 72.156675 673.399489 70.032267 673.399489 67.293403 C 673.399489 63.501937 671.608492 60.940254 668.108543 59.658976 Z M 665.255343 53.565922 C 665.255343 54.587104 664.869563 55.440707 664.14077 56.159026 C 663.422451 56.888691 662.567975 57.231704 661.547666 57.231704 L 656.037646 57.231704 L 656.037646 49.93156 L 661.547666 49.93156 C 662.567975 49.93156 663.422451 50.316468 664.14077 51.004238 C 664.869563 51.680662 665.255343 52.535139 665.255343 53.565922 Z M 662.994777 70.074161 L 656.037646 70.074161 L 656.037646 62.773145 L 662.994777 62.773145 C 664.015959 62.773145 664.911457 63.158052 665.64025 63.887717 C 666.359441 64.606036 666.744348 65.45964 666.744348 66.438927 C 666.744348 67.46971 666.359441 68.324187 665.64025 69.001483 C 664.911457 69.730276 664.015959 70.074161 662.994777 70.074161 Z M 684.915282 70.074161 L 684.915282 44.005212 L 678.260142 44.005212 L 678.260142 75.999636 L 695.663007 75.999636 L 695.663007 70.074161 Z M 718.957307 49.889666 L 718.957307 44.005212 L 699.293877 44.005212 L 699.293877 75.999636 L 718.957307 75.999636 L 718.957307 70.115183 L 705.949017 70.115183 L 705.949017 62.950324 L 717.166311 62.950324 L 717.166311 57.055397 L 705.949017 57.055397 L 705.949017 49.889666 Z M 726.375279 76.427311 C 727.365041 76.427311 728.218644 76.083426 728.937836 75.365107 C 729.624734 74.677336 730.010514 73.82286 730.010514 72.844445 C 730.010514 71.907052 729.624734 71.052576 728.937836 70.323783 C 728.218644 69.605465 727.365041 69.219685 726.375279 69.219685 C 725.395992 69.219685 724.542388 69.605465 723.865091 70.323783 C 723.136299 71.052576 722.792414 71.907052 722.792414 72.844445 C 722.792414 73.82286 723.136299 74.677336 723.865091 75.365107 C 724.542388 76.083426 725.395992 76.427311 726.375279 76.427311 Z M 726.375279 76.427311 " stroke="#f8a9ad" stroke-width="1.599998" stroke-opacity="1" stroke-miterlimit="4"/></svg>